<svg width="37" height="48" viewBox="0 0 37 48" fill="none" xmlns="http://www.w3.org/2000/svg">
<rect opacity="0.5" x="-11" width="48" height="48" fill="white"/>
<path d="M26.514 38.9018C26.5141 38.9018 26.5137 38.9028 26.5128 38.9047C26.5135 38.9028 26.514 38.9018 26.514 38.9018ZM26.0602 38.686C26.2647 38.8241 26.3794 38.9301 26.4423 39C26.3794 39.0699 26.2647 39.1759 26.0602 39.314C25.5365 39.6677 24.6803 40.0453 23.4874 40.3861C21.1221 41.0619 17.7673 41.5 14 41.5C10.2327 41.5 6.87788 41.0619 4.51259 40.3861C3.31973 40.0453 2.46345 39.6677 1.93983 39.314C1.73532 39.1759 1.62059 39.0699 1.55767 39C1.62059 38.9301 1.73532 38.8241 1.93983 38.686C2.46345 38.3323 3.31973 37.9547 4.51259 37.6139C6.87788 36.9381 10.2327 36.5 14 36.5C17.7673 36.5 21.1221 36.9381 23.4874 37.6139C24.6803 37.9547 25.5365 38.3323 26.0602 38.686ZM1.48598 38.9018C1.48602 38.9018 1.48648 38.9028 1.4872 38.9047C1.48629 38.9028 1.48593 38.9018 1.48598 38.9018ZM1.48598 39.0982C1.48593 39.0982 1.48629 39.0972 1.4872 39.0953C1.48648 39.0972 1.48602 39.0982 1.48598 39.0982ZM26.5128 39.0953C26.5137 39.0972 26.5141 39.0982 26.514 39.0982C26.514 39.0982 26.5135 39.0972 26.5128 39.0953Z" stroke="#152C5B" stroke-width="3"/>
<path d="M22.5422 15.1289C22.4925 17.3349 21.4647 23.2342 19.7266 28.5889C18.8601 31.2585 17.8504 33.685 16.7599 35.406C16.2144 36.2668 15.6896 36.8851 15.2087 37.2719C14.7355 37.6526 14.3859 37.7477 14.1351 37.742C13.8732 37.7361 13.4897 37.6155 12.9713 37.1891C12.4525 36.7625 11.8894 36.102 11.3047 35.2081C10.1361 33.4214 9.03063 30.936 8.07603 28.2271C7.12667 25.533 6.35116 22.689 5.82096 20.2289C5.28234 17.7297 5.02382 15.7489 5.04666 14.7349C5.13126 10.9782 8.886 7.61621 13.9566 7.7304C19.0273 7.8446 22.6268 11.3722 22.5422 15.1289Z" stroke="#152C5B" stroke-width="3"/>
<path d="M17.5 15.9C17.5 17.833 15.933 19.4 14 19.4C12.067 19.4 10.5 17.833 10.5 15.9C10.5 13.967 12.067 12.4 14 12.4C15.933 12.4 17.5 13.967 17.5 15.9Z" stroke="#3252DF" stroke-width="3"/>
</svg>
