<svg width="48" height="48" viewBox="0 0 48 48" fill="none" xmlns="http://www.w3.org/2000/svg">
<rect opacity="0.5" width="48" height="48" fill="white"/>
<mask id="path-2-inside-1" fill="white">
<path fill-rule="evenodd" clip-rule="evenodd" d="M19.1324 5C18.4299 5 17.7788 5.3686 17.4174 5.97101L15 10H8C3.58172 10 0 13.5817 0 18V36C0 40.4183 3.58172 44 8 44H40C44.4183 44 48 40.4183 48 36V18C48 13.5817 44.4183 10 40 10H34.5L32.5528 6.10557C32.214 5.428 31.5215 5 30.7639 5H24.75H19.1324Z"/>
</mask>
<path d="M17.4174 5.97101L19.9899 7.5145V7.5145L17.4174 5.97101ZM15 10V13H16.6986L17.5725 11.5435L15 10ZM34.5 10L31.8167 11.3416L32.6459 13H34.5V10ZM32.5528 6.10557L35.2361 4.76393L35.2361 4.76392L32.5528 6.10557ZM19.9899 7.5145C19.8092 7.8157 19.4836 8 19.1324 8V2C17.3761 2 15.7485 2.9215 14.8449 4.42752L19.9899 7.5145ZM17.5725 11.5435L19.9899 7.5145L14.8449 4.42752L12.4275 8.45651L17.5725 11.5435ZM8 13H15V7H8V13ZM3 18C3 15.2386 5.23858 13 8 13V7C1.92487 7 -3 11.9249 -3 18H3ZM3 36V18H-3V36H3ZM8 41C5.23858 41 3 38.7614 3 36H-3C-3 42.0751 1.92487 47 8 47V41ZM40 41H8V47H40V41ZM45 36C45 38.7614 42.7614 41 40 41V47C46.0751 47 51 42.0751 51 36H45ZM45 18V36H51V18H45ZM40 13C42.7614 13 45 15.2386 45 18H51C51 11.9249 46.0751 7 40 7V13ZM34.5 13H40V7H34.5V13ZM29.8695 7.44721L31.8167 11.3416L37.1833 8.65836L35.2361 4.76393L29.8695 7.44721ZM30.7639 8C30.3852 8 30.0389 7.78599 29.8695 7.44722L35.2361 4.76392C34.3891 3.07002 32.6578 2 30.7639 2V8ZM24.75 8H30.7639V2H24.75V8ZM19.1324 8H24.75V2H19.1324V8Z" fill="#152C5B" mask="url(#path-2-inside-1)"/>
<circle cx="24" cy="28" r="6.5" stroke="#3252DF" stroke-width="3"/>
<path d="M33 17C38.4044 17 40.5852 17 41 17" stroke="#152C5B" stroke-width="3" stroke-linecap="round" stroke-linejoin="round"/>
</svg>
